#!OML:ASF H:\Terrain\Patient Classification 1\Walking\liu\liu.ASF
:FULLY-SPECIFIED
:DEGREES
404
root 9.681280 16.879801 20.435900 6.538590 -1.607720 -7.685660
lowerback -81.942505 32.645401 33.572201
upperback 2.642590 38.258598 41.203598
thorax 48.085499 19.256001 28.798901
lowerneck -193.153000 -61.297600 -133.959991
upperneck 212.156998 -78.294205 130.731995
head 111.485992 -31.555599 58.256302
rclavicle 0.000000 -0.000000
rhumerus -270.111023 150.684006 -848.320007
rradius 394.922974
rwrist -178.836990
rhand -302.601990 -210.399002
rfingers 71.250198
rthumb -35.687401 -509.897003
lclavicle 0.000000 -0.000000
lhumerus -534.635010 -92.715904 963.703003
lradius 271.028992
lwrist 82.339798
lhand -103.618004 -262.648987
lfingers 71.250198
lthumb 156.351990 31.233002
rfemur 175.650009 59.025501 332.752014
rtibia -0.000000
rfoot -77.659698 69.490097
rtoes -102.721008
lfemur -431.052002 -34.855801 -86.884499
ltibia 210.575012
lfoot -160.751007 135.278992
ltoes -124.951004
405
root 9.698170 16.860100 20.610001 6.663240 -1.636340 -7.551300
lowerback -85.400200 32.856400 31.704100
upperback 2.497140 38.561501 40.309200
thorax 49.806499 19.363800 29.174299
lowerneck -191.037994 -60.688801 -134.389008
upperneck 210.435013 -77.783699 132.227997
head 110.452003 -31.266800 58.942398
rclavicle 0.000000 0.000000
rhumerus -273.061005 150.912003 -850.869019
rradius 391.943024
rwrist -178.873001
rhand -298.944000 -219.454987
rfingers 71.250198
rthumb -32.154800 -519.010010
lclavicle 0.000000 0.000000
lhumerus -534.406982 -92.081604 962.564026
lradius 268.195007
lwrist 78.110703
lhand -74.890900 -208.207001
lfingers 71.250198
lthumb 184.003998 83.290192
rfemur 180.935989 58.742599 330.457001
rtibia -0.000000
rfoot -77.048302 69.990799
rtoes -99.820206
lfemur -430.973999 -24.007399 -96.867905
ltibia 217.328003
lfoot -155.483002 123.800003
ltoes -120.815002
406
root 9.718390 16.822001 20.777300 6.696500 -1.575420 -7.675310
lowerback -85.664795 32.786400 32.654602
upperback 1.388710 38.404202 40.410400
thorax 48.853401 19.306999 28.693399
lowerneck -188.796005 -61.080097 -135.356995
upperneck 209.985016 -78.241600 132.048004
head 109.960007 -31.656000 58.957703
rclavicle 0.000000 0.000000
rhumerus -277.429993 151.710999 -854.010986
rradius 388.110016
rwrist -181.250000
rhand -300.347992 -216.016998
rfingers 71.250198
rthumb -33.510597 -515.551025
lclavicle 0.000000 0.000000
lhumerus -536.785034 -89.738503 961.585022
lradius 268.101013
lwrist 72.598999
lhand -83.600395 -231.135010
lfingers 71.250198
lthumb 175.624008 61.132103
rfemur 187.422012 57.565498 331.399994
rtibia -0.000000
rfoot -74.884804 69.424400
rtoes -121.014008
lfemur -430.891998 -14.747900 -102.995003
ltibia 224.585999
lfoot -149.701004 111.666000
ltoes -131.059998
407
root 9.745040 16.793800 20.941401 6.747970 -1.397710 -7.933830
lowerback -84.285599 33.025501 36.733299
upperback 0.188092 38.487301 39.811501
thorax 47.133499 19.445000 25.657900
lowerneck -190.990997 -62.179901 -134.934998
upperneck 212.095001 -79.845703 131.908997
head 111.397003 -32.286602 58.628803
rclavicle -0.000000 -0.000000
rhumerus -281.333984 147.321991 -856.676025
rradius 385.068024
rwrist -179.139999
rhand -301.391998 -206.352997
rfingers 71.250198
rthumb -34.518898 -505.871002
lclavicle -0.000000 -0.000000
lhumerus -538.658997 -89.777100 960.485962
lradius 268.070007
lwrist 67.596802
lhand -67.549904 -208.421005
lfingers 71.250198
lthumb 191.063995 82.394600
rfemur 192.812012 55.516602 333.464996
rtibia -0.000000
rfoot -70.947502 69.122002
rtoes -147.559006
lfemur -430.628021 -8.554880 -106.031998
ltibia 231.903992
lfoot -143.766998 101.220001
ltoes -134.834991
408
root 9.788370 16.773300 21.114000 6.922580 -1.236280 -7.695670
lowerback -85.935600 32.956001 37.355301
upperback -0.432848 38.350998 37.655102
thorax 47.599201 19.407900 23.127602
lowerneck -193.416992 -62.868000 -134.096008
upperneck 212.895996 -80.699394 131.283997
head 112.231995 -32.587700 58.109699
rclavicle -0.000000 -0.000000
rhumerus -284.881012 143.341003 -858.554016
rradius 383.991028
rwrist -174.085007
rhand -299.929016 -207.792999
rfingers 71.250198
rthumb -33.106300 -507.333984
lclavicle -0.000000 -0.000000
lhumerus -538.348022 -90.621902 960.101990
lradius 266.688995
lwrist 64.198601
lhand -75.237099 -222.171005
lfingers 71.250198
lthumb 183.670990 69.357498
rfemur 197.016998 53.731598 328.811005
rtibia 0.000000
rfoot -67.050201 69.701096
rtoes -151.412003
lfemur -429.598999 -4.663220 -114.787994
ltibia 238.540009
lfoot -139.479996 92.614807
ltoes -132.910995
409
root 9.767760 16.746300 21.299700 6.955330 -1.627690 -7.913230
lowerback -88.150497 33.804501 33.590801
upperback -0.711697 39.668098 39.243301
thorax 48.165699 19.958799 27.184299
lowerneck -193.789001 -62.184402 -132.365997
upperneck 213.514008 -79.726501 129.222000
head 112.191002 -32.222198 57.198200
rclavicle 0.000000 0.000000
rhumerus -291.390015 143.078003 -860.960022
rradius 384.940002
rwrist -171.182007
rhand -295.186005 -221.434998
rfingers 71.250198
rthumb -28.525801 -521.041992
lclavicle 0.000000 0.000000
lhumerus -539.231995 -90.573303 960.867004
lradius 266.485016
lwrist 64.606903
lhand -93.342804 -252.800003
lfingers 71.250198
lthumb 166.246002 40.279499
rfemur 203.010010 56.711201 331.737000
rtibia -0.000000
rfoot -62.716999 69.448502
rtoes -157.063995
lfemur -426.283997 5.375030 -115.188995
ltibia 243.794998
lfoot -129.164001 88.043404
ltoes -123.042999
410
root 9.812160 16.733900 21.454399 7.380400 -1.489280 -7.928240
lowerback -88.518692 33.838001 36.777798
upperback -4.629230 39.624298 37.650700
thorax 44.600502 20.001699 23.576401
lowerneck -193.096008 -61.501999 -131.667999
upperneck 215.673996 -79.451698 129.852005
head 112.816002 -31.988800 57.461098
rclavicle -0.000000 0.000000
rhumerus -300.088013 141.220001 -865.071045
rradius 383.283020
rwrist -167.147995
rhand -290.460999 -234.871994
rfingers 71.250198
rthumb -23.962099 -534.533997
lclavicle -0.000000 0.000000
lhumerus -543.026978 -91.361504 960.765991
lradius 266.936005
lwrist 65.429398
lhand -62.261101 -203.588013
lfingers 71.250198
lthumb 196.149994 86.716400
rfemur 203.813004 55.924702 329.696991
rtibia 0.000000
rfoot -57.270096 70.315796
rtoes -155.393997
lfemur -429.399994 12.364599 -121.389999
ltibia 246.065002
lfoot -104.339996 89.274902
ltoes -121.556000
411
root 9.839190 16.738100 21.617599 7.658190 -1.610930 -7.911080
lowerback -88.977097 34.734398 37.726601
upperback -6.717870 40.856400 36.185200
thorax 42.832497 20.626600 21.610798
lowerneck -192.682007 -62.408798 -132.901001
upperneck 215.738998 -80.946396 131.755997
head 113.154999 -32.569397 58.165302
rclavicle -0.000000 -0.000000
rhumerus -304.856995 138.013000 -868.065063
rradius 378.865021
rwrist -163.484985
rhand -292.858002 -240.729004
rfingers 71.250198
rthumb -26.276901 -540.364014
lclavicle -0.000000 -0.000000
lhumerus -543.356995 -89.796104 957.926025
lradius 265.105988
lwrist 60.889900
lhand -63.990700 -209.417999
lfingers 71.250198
lthumb 194.487000 81.055000
rfemur 206.248001 57.130398 327.841003
rtibia 0.000000
rfoot -48.848400 70.467400
rtoes -156.295990
lfemur -431.524994 16.198799 -123.794006
ltibia 247.290985
lfoot -75.743599 101.404999
ltoes -137.781006
412
root 9.850740 16.757401 21.778500 7.862410 -1.661490 -7.624330
lowerback -88.931107 34.745499 33.287201
upperback -10.250100 41.530098 35.226799
thorax 38.866600 20.879000 22.977400
lowerneck -184.444000 -62.362000 -135.446991
upperneck 213.906998 -81.503998 133.787003
head 111.181000 -33.109100 59.285896
rclavicle 0.000000 -0.000000
rhumerus -314.213013 133.515991 -870.026978
rradius 376.567017
rwrist -159.451996
rhand -297.011993 -240.709000
rfingers 71.250198
rthumb -30.289299 -540.291016
lclavicle 0.000000 -0.000000
lhumerus -546.088013 -85.647804 955.701965
lradius 261.457001
lwrist 54.261597
lhand -68.086800 -215.526001
lfingers 71.250198
lthumb 190.548004 75.340302
rfemur 209.475006 57.119499 323.562012
rtibia -0.000000
rfoot -38.921299 71.112602
rtoes -154.091995
lfemur -433.361023 19.146801 -128.285004
ltibia 249.519012
lfoot -51.407898 109.183998
ltoes -144.076004
413
root 9.865460 16.760599 21.939199 8.038300 -1.608720 -7.190040
lowerback -89.831100 34.200001 27.348499
upperback -8.837900 41.348701 33.750301
thorax 40.530399 20.713001 24.844101
lowerneck -194.815994 -65.067101 -137.192001
upperneck 216.334991 -84.615700 136.913010
head 114.884995 -33.931499 60.304298
rclavicle 0.000000 -0.000000
rhumerus -314.016998 130.011993 -870.203003
rradius 375.383972
rwrist -155.453995
rhand -296.179016 -240.683990
rfingers 71.250198
rthumb -29.484701 -540.278015
lclavicle 0.000000 -0.000000
lhumerus -538.083008 -84.898697 953.537964
lradius 257.317017
lwrist 51.044998
lhand -70.718094 -218.850006
lfingers 71.250198
lthumb 188.018005 72.263802
rfemur 212.735992 55.856899 317.884003
rtibia 0.000000
rfoot -27.213400 70.307396
rtoes -149.637009
lfemur -436.022980 24.601200 -136.897003
ltibia 255.029999
lfoot -27.457399 112.252998
ltoes -138.375000
